<svg width="255" height="133" viewBox="0 0 255 133" fill="none" xmlns="http://www.w3.org/2000/svg">
<path d="M174.19 38.3462C168.327 31.6054 162.6 24.6148 156.873 17.6243C150.328 9.6351 145.215 1.9788 135.534 0.147948C131.512 -0.184935 127.353 0.147948 123.262 0.147948H84.9473C68.8577 0.147948 68.517 2.3949 57.8133 15.1277C50.8594 23.3665 44.0418 31.6885 37.0196 39.8441H18.6802C8.931 39.8441 0.136353 40.0106 0 55.2399V83.5349C0 106.504 0.272705 109.167 18.4075 109.167H33.6789C39.8829 138.96 74.0392 140.541 82.9702 109.167H119.376H172.008C179.439 140.541 214.618 138.71 221.027 109.167H239.434C245.025 109.167 254.092 111.164 254.978 101.594C255.388 96.6006 249.865 73.9646 247.479 67.4734C239.571 45.9193 224.095 45.2535 207.801 42.9234L174.19 38.3462ZM134.239 7.4714C143.033 8.63649 147.874 17.125 153.805 24.1987L163.623 35.9328C165.327 37.9301 167.099 39.8442 168.668 41.8414C165.463 45.6696 161.168 49.7475 157.691 53.6588H148.965C147.533 53.6588 144.465 54.3246 143.442 52.9098C141.806 50.8293 137.443 44.6709 135.67 43.5891C133.489 42.2575 112.831 43.0898 109.013 43.0898V7.4714H134.239ZM98.2416 7.4714H103.014V43.0898H68.9259C66.4034 43.0898 61.5629 42.0911 61.6311 46.7515C61.6993 51.9944 71.9939 50.2467 74.5845 50.2467H121.081C125.035 50.2467 129.262 50.4964 133.148 50.2467L133.284 50.4132C141.738 59.7339 137.307 60.899 149.919 60.899C158.032 60.899 158.305 62.6467 164.782 55.7393C167.918 52.3273 170.986 48.7488 174.19 45.42C177.462 45.5864 180.803 46.3354 184.075 46.8347L216.254 51.3286C227.367 52.993 238.412 57.0708 242.434 71.8009H233.844C231.39 71.8009 226.754 70.8022 226.822 75.5458C226.89 80.4558 232.549 79.2907 235.207 79.2907H244.411C246.047 85.6987 249.32 95.2691 249.183 101.927C240.048 101.844 230.844 101.927 221.709 101.927C222.39 80.2062 203.505 65.3929 187.075 73.2157C177.19 78.2089 171.395 89.1108 171.326 101.927H83.4474C84.2655 62.1473 33.2698 60.4829 32.7926 101.261V101.927H18.5439C4.36324 101.927 5.79486 101.511 5.86304 85.4491C9.88542 85.4491 17.3167 86.9471 20.4528 83.2021C23.0435 80.123 22.2253 74.7968 22.2253 70.8023C22.2935 53.9085 17.3848 57.4038 5.86304 57.4038C5.59033 45.5864 10.7717 47.2508 17.9984 47.334H32.9291C40.8375 47.334 39.1329 47.5837 44.7234 41.0092L61.563 21.0363C72.5394 7.88744 70.0168 7.5546 86.2427 7.5546L98.2416 7.4714ZM16.3623 64.6439V77.9592H5.93129V64.6439C9.40826 64.6439 12.8853 64.5607 16.3623 64.6439ZM197.506 78.0424C225.458 83.2021 218.436 126.81 195.665 124.646C172.826 123.98 169.281 79.6236 197.506 78.0424ZM60.063 78.0424C88.4242 86.0316 79.425 127.143 55.9724 124.646C38.1785 121.234 32.9971 94.6033 46.7687 82.6195C50.9274 78.9578 55.0862 78.625 60.063 78.0424Z" fill="black"/>
<path d="M194.849 118.494C214.552 119.576 216.597 87.2031 197.508 84.6232C180.396 82.4595 176.032 114.832 194.849 118.494ZM197.508 91.6138C207.052 93.0285 208.552 112.003 194.849 111.42C183.055 107.176 189.19 89.2836 197.508 91.6138Z" fill="black"/>
<path d="M55.899 118.485C75.6018 120.399 78.1925 87.8602 59.9895 84.6146C49.2177 82.3676 40.9002 96.7648 45.468 108.749C47.9223 114.99 50.9903 116.322 55.899 118.485ZM59.3759 91.6051C70.3522 95.1004 67.898 111.744 56.7853 111.412C45.059 106.002 50.3084 90.6065 59.3759 91.6051Z" fill="black"/>
</svg>
